<?xml version="1.0" standalone="no"?>
<!DOCTYPE svg PUBLIC "-//W3C//DTD SVG 20010904//EN"
 "http://www.w3.org/TR/2001/REC-SVG-20010904/DTD/svg10.dtd">
<svg version="1.0" xmlns="http://www.w3.org/2000/svg"
 width="700.000000pt" height="700.000000pt" viewBox="0 0 700.000000 700.000000"
 preserveAspectRatio="xMidYMid meet">
<metadata>
Created by potrace 1.11, written by Peter Selinger 2001-2013
</metadata>
<g transform="translate(0.000000,700.000000) scale(0.100000,-0.100000)"
fill="#000000" stroke="none">
<path d="M3418 6175 c-2 -1 -50 -5 -108 -9 -136 -8 -183 -16 -192 -30 -4 -6
-8 -1193 -8 -2637 l0 -2626 48 -7 c194 -28 530 -28 697 -1 17 3 44 7 60 10 17
3 46 8 65 11 65 10 264 63 350 92 315 109 583 256 835 460 75 61 292 272 343
335 355 434 570 966 610 1507 12 166 4 527 -13 590 -2 8 -6 35 -9 60 -3 25 -8
56 -11 70 -89 472 -281 883 -585 1251 -65 79 -244 255 -330 325 -253 205 -546
367 -840 463 -120 40 -204 63 -225 62 -2 0 -19 5 -37 10 -55 17 -210 43 -328
55 -47 5 -318 13 -322 9z"/>
<path d="M1272 4938 c-143 -237 -246 -478 -313 -736 -22 -87 -56 -266 -63
-339 -4 -29 -9 -76 -12 -104 -10 -89 -11 -349 -2 -464 7 -98 28 -256 43 -325
3 -14 8 -38 10 -55 40 -226 198 -614 343 -840 l52 -80 0 1513 c0 831 -2 1512
-4 1512 -2 0 -26 -37 -54 -82z"/>
</g>
</svg>
